<?xml version="1.0" standalone="no"?>
<!DOCTYPE svg PUBLIC "-//W3C//DTD SVG 20010904//EN"
 "http://www.w3.org/TR/2001/REC-SVG-20010904/DTD/svg10.dtd">
<svg version="1.0" xmlns="http://www.w3.org/2000/svg"
 width="286.000000pt" height="286.000000pt" viewBox="0 0 286.000000 286.000000"
 preserveAspectRatio="xMidYMid meet">
<metadata>
Created by potrace 1.14, written by Peter Selinger 2001-2017
</metadata>
<g transform="translate(0.000000,286.000000) scale(0.100000,-0.100000)"
fill="#000000" stroke="none">
<path d="M2830 1430 c0 -1264 2 -1430 15 -1430 13 0 15 166 15 1430 0 1264 -2
1430 -15 1430 -13 0 -15 -166 -15 -1430z"/>
<path d="M1224 2300 c-73 -36 -121 -86 -161 -167 -32 -65 -37 -85 -37 -147 -1
-44 5 -83 14 -101 15 -30 15 -30 -53 -115 -124 -154 -246 -382 -268 -502 -16
-87 -1 -178 44 -262 24 -46 47 -71 99 -109 37 -27 66 -53 63 -57 -3 -5 -20
-12 -38 -15 -77 -17 -129 -75 -143 -162 -7 -47 13 -102 50 -134 24 -21 26 -29
26 -106 0 -59 -6 -98 -20 -135 -24 -63 -23 -58 -6 -58 8 0 16 7 20 15 3 8 10
15 17 15 6 0 9 -7 5 -15 -4 -13 9 -15 84 -15 l89 0 -6 63 c-6 68 16 142 39
135 18 -6 37 -65 37 -120 1 -85 -35 -78 406 -78 l394 0 3 43 3 42 20 -40 20
-40 97 -3 97 -3 -39 78 c-40 81 -70 171 -70 208 0 12 9 30 21 41 33 30 49 69
49 123 0 64 -11 91 -57 142 -39 44 -101 78 -140 79 -29 0 -29 4 6 48 78 97 99
268 52 422 -67 220 -246 459 -426 568 l-60 37 12 45 c31 122 -7 238 -93 280
-51 25 -98 25 -150 0z m1 -59 c7 -13 -32 -34 -47 -25 -7 5 -5 11 7 21 22 15
32 16 40 4z m-65 -50 c0 -5 -18 -28 -41 -52 -28 -29 -38 -47 -33 -58 23 -53 9
-141 -16 -101 -24 38 -6 130 37 188 23 30 53 43 53 23z m-20 -86 c0 -8 -7 -15
-15 -15 -16 0 -20 12 -8 23 11 12 23 8 23 -8z m350 -215 c0 -4 -7 -13 -15 -20
-12 -10 -20 -9 -40 4 -21 14 -23 19 -13 35 10 16 14 17 39 4 16 -8 29 -18 29
-23z m-44 -200 c16 -6 39 -25 52 -44 19 -29 21 -37 11 -59 -17 -37 -64 -52
-235 -77 -220 -32 -277 -23 -303 52 -9 27 -8 33 18 58 46 46 177 76 347 79 45
0 94 -4 110 -9z m-540 -102 c-24 -46 -59 -123 -77 -173 -27 -77 -32 -104 -33
-190 -1 -93 1 -104 29 -154 16 -29 49 -69 72 -89 34 -27 42 -39 37 -56 -9 -30
-10 -30 -48 -6 -79 49 -146 173 -146 272 0 93 76 284 173 436 45 69 41 48 -7
-40z m448 -375 c15 -93 2 -123 -53 -123 -19 0 -21 7 -23 73 l-2 72 -3 -72 c-2
-40 -8 -73 -13 -73 -19 0 -42 51 -43 97 l-2 48 40 6 c88 13 92 12 99 -28z
m-344 -344 c0 -4 -13 -3 -30 2 -33 12 -32 11 -24 34 6 14 9 13 30 -6 13 -12
24 -26 24 -30z m-40 -63 c0 -73 103 -141 242 -159 165 -21 410 20 498 83 21
15 30 17 30 8 -1 -24 -121 -70 -230 -89 -234 -41 -474 -6 -540 78 -21 27 -28
103 -10 103 6 0 10 -11 10 -24z m-177 -93 c-10 -24 -13 -55 -10 -87 3 -34 1
-44 -5 -32 -15 27 -11 105 6 131 24 36 27 31 9 -12z m265 -199 c4 -26 -20 -37
-44 -20 -24 18 -11 48 18 44 14 -2 24 -11 26 -24z m-198 -167 c0 -18 -7 -42
-16 -53 -15 -18 -15 -17 -10 15 3 18 6 42 6 52 0 11 5 19 10 19 6 0 10 -15 10
-33z"/>
</g>
</svg>
